<svg id="Layer_1" data-name="Layer 1" xmlns="http://www.w3.org/2000/svg" viewBox="0 0 548 99"><circle cx="25" cy="25" r="19" style="fill:#cfb991"/><circle cx="25" cy="74" r="19" style="fill:#cfb991"/><circle cx="70" cy="25" r="19" style="fill:#cfb991"/><circle cx="70" cy="74" r="19" style="fill:#cfb991"/><path d="M125.59,60.2V13.93a6.37,6.37,0,1,1,12.74,0v46a17.55,17.55,0,0,0,17.92,17.66c10.43,0,17.15-8.13,17.15-17.66V13.74a6.37,6.37,0,0,1,12.73,0V60.2c0,16.51-12.15,29.88-29.82,29.88S125.59,76.71,125.59,60.2Z" style="fill:#fff"/><path d="M238.81,83.23V58.66c-.13-10.17-5.19-16.89-13.7-16.89s-14.91,7.1-14.91,16.57V83a6.32,6.32,0,0,1-6.34,6.34,6.41,6.41,0,0,1-6.4-6.34V35.43a6.48,6.48,0,0,1,6.47-6.4,6.27,6.27,0,0,1,6.27,6.4v.9c4.61-4.42,10.3-7.24,16.32-7.24,14.91,0,24.89,12.55,25,29.57V83.23a6.34,6.34,0,0,1-12.67,0Z" style="fill:#fff"/><path d="M261.65,15.27a7.11,7.11,0,1,1,7.11,7A7.08,7.08,0,0,1,261.65,15.27ZM262.42,83V35.43a6.48,6.48,0,0,1,6.47-6.4,6.27,6.27,0,0,1,6.27,6.4V83a6.32,6.32,0,0,1-6.34,6.34A6.41,6.41,0,0,1,262.42,83Z" style="fill:#fff"/><path d="M283,59.88v-.26A30.69,30.69,0,0,1,313.81,29c7.94,0,15.62,2.88,20.8,8.19a7.48,7.48,0,0,1,2.3,5.25,6.51,6.51,0,0,1-6.27,6.33c-2.3,0-4.22-1.47-5.82-2.75A17.45,17.45,0,0,0,313,41.89c-9.34,0-17,8.45-17,17.6v.19a17.51,17.51,0,0,0,17.34,17.48,17.08,17.08,0,0,0,11.46-4.1c1.6-1.28,3.52-2.62,5.76-2.62a6.45,6.45,0,0,1,6.33,6.2,7.51,7.51,0,0,1-2.3,5.25c-5.18,5.31-12.86,8.19-20.8,8.19C296.79,90.08,283,76.83,283,59.88Z" style="fill:#fff"/><path d="M341.21,59.62a30.49,30.49,0,1,1,30.52,30.53A30.6,30.6,0,0,1,341.21,59.62Zm48.25,0a17.73,17.73,0,0,0-35.46,0,17.73,17.73,0,1,0,35.46,0Z" style="fill:#fff"/><path d="M406.42,59.62a30.5,30.5,0,0,1,48.25-24.83v-21a6.37,6.37,0,0,1,12.74,0V83.11a6.4,6.4,0,0,1-12.67,1.15A30.07,30.07,0,0,1,437,90.08,30.59,30.59,0,0,1,406.42,59.62Zm48.25.77V58.92a17.63,17.63,0,1,0,0,1.47Z" style="fill:#fff"/><path d="M475.35,59.62a30.65,30.65,0,0,1,61.3-.32,5.93,5.93,0,0,1-6.27,6.08H489.49A17.13,17.13,0,0,0,506,77.86c5.44,0,9-1.79,11.52-4.54,2.82-3.14,7.1-1.86,9.41,1.47a6.17,6.17,0,0,1-1.35,8.38c-4.09,3.46-9.92,6.91-19.58,6.91A30.57,30.57,0,0,1,475.35,59.62Zm48.19-4.86a17.72,17.72,0,0,0-34.43,0Z" style="fill:#fff"/></svg>